<svg xmlns="http://www.w3.org/2000/svg" viewBox="0 0 512 512" width="512" height="512">
  <defs>
    <linearGradient id="bg" x1="0%" y1="0%" x2="100%" y2="100%">
      <stop offset="0%" style="stop-color:#2563EB"/>
      <stop offset="100%" style="stop-color:#1D4ED8"/>
    </linearGradient>
  </defs>
  <rect width="512" height="512" rx="100" ry="100" fill="url(#bg)"/>
  <!-- Document -->
  <rect x="136" y="68" width="240" height="300" rx="18" ry="18" fill="white" opacity="0.95"/>
  <!-- Corner fold -->
  <path d="M316 68 L376 128 L316 128 Z" fill="#93C5FD"/>
  <!-- Spreadsheet lines -->
  <rect x="158" y="158" width="180" height="22" rx="5" fill="#10B981" opacity="0.9"/>
  <rect x="158" y="192" width="140" height="16" rx="4" fill="#6EE7B7" opacity="0.8"/>
  <rect x="158" y="218" width="160" height="16" rx="4" fill="#6EE7B7" opacity="0.8"/>
  <rect x="158" y="244" width="120" height="16" rx="4" fill="#6EE7B7" opacity="0.8"/>
  <rect x="158" y="270" width="150" height="16" rx="4" fill="#6EE7B7" opacity="0.7"/>
  <!-- Arrow circle -->
  <circle cx="256" cy="430" r="68" fill="#10B981"/>
  <path d="M256 400 L256 448 M234 430 L256 452 L278 430" stroke="white" stroke-width="10" stroke-linecap="round" stroke-linejoin="round" fill="none"/>
</svg>
