<svg xmlns="http://www.w3.org/2000/svg" viewBox="0 0 192 192" width="192" height="192">
  <defs>
    <linearGradient id="bg" x1="0%" y1="0%" x2="100%" y2="100%">
      <stop offset="0%" style="stop-color:#2563EB"/>
      <stop offset="100%" style="stop-color:#1D4ED8"/>
    </linearGradient>
  </defs>
  <!-- Background rounded square -->
  <rect width="192" height="192" rx="40" ry="40" fill="url(#bg)"/>
  <!-- File icon body -->
  <rect x="52" y="28" width="88" height="110" rx="8" ry="8" fill="white" opacity="0.95"/>
  <!-- Folded corner -->
  <polygon points="120,28 140,48 120,48" fill="#BFDBFE"/>
  <rect x="120" y="28" width="20" height="20" rx="0" fill="none"/>
  <path d="M120 28 L140 48 L120 48 Z" fill="#93C5FD"/>
  <!-- Excel-style green lines (representing spreadsheet) -->
  <rect x="62" y="60" width="68" height="8" rx="2" fill="#10B981" opacity="0.9"/>
  <rect x="62" y="75" width="50" height="6" rx="2" fill="#6EE7B7" opacity="0.8"/>
  <rect x="62" y="87" width="58" height="6" rx="2" fill="#6EE7B7" opacity="0.8"/>
  <rect x="62" y="99" width="44" height="6" rx="2" fill="#6EE7B7" opacity="0.8"/>
  <!-- Arrow down (export) -->
  <circle cx="96" cy="162" r="24" fill="#10B981"/>
  <path d="M96 150 L96 168 M88 161 L96 169 L104 161" stroke="white" stroke-width="3.5" stroke-linecap="round" stroke-linejoin="round" fill="none"/>
</svg>
